<svg width="512" height="512" viewBox="0 0 512 512" fill="none" xmlns="http://www.w3.org/2000/svg">
  <defs>
    <linearGradient id="premium" x1="0" y1="0" x2="1" y2="1">
      <stop offset="0%" stop-color="#4F46E5" />
      <stop offset="50%" stop-color="#EC4899" />
      <stop offset="100%" stop-color="#06B6D4" />
    </linearGradient>
    <filter id="f1" x="-20%" y="-20%" width="140%" height="140%">
      <feGaussianBlur in="SourceGraphic" stdDeviation="15" />
    </filter>
  </defs>
  <circle cx="256" cy="256" r="200" fill="url(#premium)" opacity="0.3" filter="url(#f1)" />
  <path d="M256 60L60 220V420C60 442.1 77.9 460 100 460H412C434.1 460 452 442.1 452 420V220L256 60Z" fill="url(#premium)" />
  <path fill-rule="evenodd" clip-rule="evenodd" d="M256 360C256 360 330 310 330 260C330 230 310 210 285 210C270 210 260 220 256 230C252 220 242 210 227 210C202 210 182 230 182 260C182 310 256 360 256 360Z" fill="white" fill-opacity="0.8" />
  <path d="M256 80L80 230Q80 220 256 70Z" fill="white" opacity="0.3" />
</svg>